<mxfile host="app.diagrams.net" modified="2021-02-01T09:20:53.805Z" agent="5.0 (Windows)" etag="46gozMMsNl9WH-vhTi2x" version="14.2.9" type="github">
  <diagram name="Page-1" id="74e2e168-ea6b-b213-b513-2b3c1d86103e">
    <mxGraphModel dx="1226" dy="1133" grid="1" gridSize="10" guides="1" tooltips="1" connect="1" arrows="1" fold="1" page="1" pageScale="1" pageWidth="1100" pageHeight="850" background="#ffffff" math="0" shadow="0">
      <root>
        <mxCell id="0" />
        <mxCell id="1" parent="0" />
        <mxCell id="qZl76aj6wRoeEzAUEJ4Y-3" style="edgeStyle=orthogonalEdgeStyle;rounded=0;orthogonalLoop=1;jettySize=auto;html=1;entryX=0.5;entryY=0;entryDx=0;entryDy=0;" edge="1" parent="1" source="qZl76aj6wRoeEzAUEJ4Y-1" target="qZl76aj6wRoeEzAUEJ4Y-2">
          <mxGeometry relative="1" as="geometry" />
        </mxCell>
        <mxCell id="qZl76aj6wRoeEzAUEJ4Y-1" value="Start" style="ellipse;whiteSpace=wrap;html=1;aspect=fixed;" vertex="1" parent="1">
          <mxGeometry x="470" y="40" width="100" height="100" as="geometry" />
        </mxCell>
        <mxCell id="qZl76aj6wRoeEzAUEJ4Y-5" style="edgeStyle=orthogonalEdgeStyle;rounded=0;orthogonalLoop=1;jettySize=auto;html=1;entryX=0.5;entryY=0;entryDx=0;entryDy=0;" edge="1" parent="1" source="qZl76aj6wRoeEzAUEJ4Y-2" target="qZl76aj6wRoeEzAUEJ4Y-4">
          <mxGeometry relative="1" as="geometry" />
        </mxCell>
        <mxCell id="qZl76aj6wRoeEzAUEJ4Y-2" value="Moms &amp;lt;- 0.25" style="rounded=0;whiteSpace=wrap;html=1;" vertex="1" parent="1">
          <mxGeometry x="440" y="200" width="160" height="60" as="geometry" />
        </mxCell>
        <mxCell id="qZl76aj6wRoeEzAUEJ4Y-7" style="edgeStyle=orthogonalEdgeStyle;rounded=0;orthogonalLoop=1;jettySize=auto;html=1;entryX=0.5;entryY=0;entryDx=0;entryDy=0;" edge="1" parent="1" source="qZl76aj6wRoeEzAUEJ4Y-4" target="qZl76aj6wRoeEzAUEJ4Y-6">
          <mxGeometry relative="1" as="geometry" />
        </mxCell>
        <mxCell id="qZl76aj6wRoeEzAUEJ4Y-4" value="Kostpris &amp;lt;- 125" style="rounded=0;whiteSpace=wrap;html=1;" vertex="1" parent="1">
          <mxGeometry x="440" y="320" width="160" height="60" as="geometry" />
        </mxCell>
        <mxCell id="qZl76aj6wRoeEzAUEJ4Y-8" style="edgeStyle=orthogonalEdgeStyle;rounded=0;orthogonalLoop=1;jettySize=auto;html=1;exitX=0.5;exitY=1;exitDx=0;exitDy=0;" edge="1" parent="1" source="qZl76aj6wRoeEzAUEJ4Y-6">
          <mxGeometry relative="1" as="geometry">
            <mxPoint x="520" y="570" as="targetPoint" />
          </mxGeometry>
        </mxCell>
        <mxCell id="qZl76aj6wRoeEzAUEJ4Y-6" value="Avance &amp;lt;- 25" style="rounded=0;whiteSpace=wrap;html=1;" vertex="1" parent="1">
          <mxGeometry x="440" y="440" width="160" height="60" as="geometry" />
        </mxCell>
        <mxCell id="qZl76aj6wRoeEzAUEJ4Y-11" style="edgeStyle=orthogonalEdgeStyle;rounded=0;orthogonalLoop=1;jettySize=auto;html=1;entryX=0.5;entryY=0;entryDx=0;entryDy=0;entryPerimeter=0;" edge="1" parent="1" source="qZl76aj6wRoeEzAUEJ4Y-9" target="qZl76aj6wRoeEzAUEJ4Y-10">
          <mxGeometry relative="1" as="geometry" />
        </mxCell>
        <mxCell id="qZl76aj6wRoeEzAUEJ4Y-9" value="Salgspris &amp;lt;- (kostpris + avance)&amp;nbsp; * (1 + moms)" style="rounded=0;whiteSpace=wrap;html=1;" vertex="1" parent="1">
          <mxGeometry x="440" y="570" width="160" height="60" as="geometry" />
        </mxCell>
        <mxCell id="qZl76aj6wRoeEzAUEJ4Y-12" style="edgeStyle=orthogonalEdgeStyle;rounded=0;orthogonalLoop=1;jettySize=auto;html=1;" edge="1" parent="1" source="qZl76aj6wRoeEzAUEJ4Y-10">
          <mxGeometry relative="1" as="geometry">
            <mxPoint x="520" y="820" as="targetPoint" />
          </mxGeometry>
        </mxCell>
        <mxCell id="qZl76aj6wRoeEzAUEJ4Y-10" value="&lt;div&gt;&quot;Salgsprisen er kr.&quot;&lt;/div&gt;&lt;div&gt;Salgspris&lt;br&gt;&lt;/div&gt;" style="strokeWidth=2;html=1;shape=mxgraph.flowchart.display;whiteSpace=wrap;" vertex="1" parent="1">
          <mxGeometry x="440" y="690" width="160" height="60" as="geometry" />
        </mxCell>
        <mxCell id="qZl76aj6wRoeEzAUEJ4Y-14" value="Slut" style="ellipse;whiteSpace=wrap;html=1;aspect=fixed;" vertex="1" parent="1">
          <mxGeometry x="465" y="820" width="110" height="110" as="geometry" />
        </mxCell>
        <mxCell id="qZl76aj6wRoeEzAUEJ4Y-20" style="edgeStyle=orthogonalEdgeStyle;rounded=0;orthogonalLoop=1;jettySize=auto;html=1;entryX=0.5;entryY=0;entryDx=0;entryDy=0;" edge="1" parent="1" source="qZl76aj6wRoeEzAUEJ4Y-15" target="qZl76aj6wRoeEzAUEJ4Y-16">
          <mxGeometry relative="1" as="geometry" />
        </mxCell>
        <mxCell id="qZl76aj6wRoeEzAUEJ4Y-15" value="const moms = 25;" style="rounded=0;whiteSpace=wrap;html=1;" vertex="1" parent="1">
          <mxGeometry x="720" y="200" width="160" height="60" as="geometry" />
        </mxCell>
        <mxCell id="qZl76aj6wRoeEzAUEJ4Y-21" style="edgeStyle=orthogonalEdgeStyle;rounded=0;orthogonalLoop=1;jettySize=auto;html=1;entryX=0.5;entryY=0;entryDx=0;entryDy=0;" edge="1" parent="1" source="qZl76aj6wRoeEzAUEJ4Y-16" target="qZl76aj6wRoeEzAUEJ4Y-17">
          <mxGeometry relative="1" as="geometry" />
        </mxCell>
        <mxCell id="qZl76aj6wRoeEzAUEJ4Y-16" value="const kostpris = 125;" style="rounded=0;whiteSpace=wrap;html=1;" vertex="1" parent="1">
          <mxGeometry x="720" y="320" width="160" height="60" as="geometry" />
        </mxCell>
        <mxCell id="qZl76aj6wRoeEzAUEJ4Y-22" value="" style="edgeStyle=orthogonalEdgeStyle;rounded=0;orthogonalLoop=1;jettySize=auto;html=1;" edge="1" parent="1" source="qZl76aj6wRoeEzAUEJ4Y-17" target="qZl76aj6wRoeEzAUEJ4Y-18">
          <mxGeometry relative="1" as="geometry" />
        </mxCell>
        <mxCell id="qZl76aj6wRoeEzAUEJ4Y-17" value="const avance = 25;" style="rounded=0;whiteSpace=wrap;html=1;" vertex="1" parent="1">
          <mxGeometry x="720" y="440" width="160" height="60" as="geometry" />
        </mxCell>
        <mxCell id="qZl76aj6wRoeEzAUEJ4Y-23" style="edgeStyle=orthogonalEdgeStyle;rounded=0;orthogonalLoop=1;jettySize=auto;html=1;entryX=0.5;entryY=0;entryDx=0;entryDy=0;" edge="1" parent="1" source="qZl76aj6wRoeEzAUEJ4Y-18" target="qZl76aj6wRoeEzAUEJ4Y-19">
          <mxGeometry relative="1" as="geometry" />
        </mxCell>
        <mxCell id="qZl76aj6wRoeEzAUEJ4Y-18" value="const salgspris = (kostpris + avance) * (1 + moms)" style="rounded=0;whiteSpace=wrap;html=1;" vertex="1" parent="1">
          <mxGeometry x="720" y="570" width="160" height="60" as="geometry" />
        </mxCell>
        <mxCell id="qZl76aj6wRoeEzAUEJ4Y-19" value="console.log(&quot;salgsprisen er kr. &quot; + salgspris);" style="rounded=0;whiteSpace=wrap;html=1;" vertex="1" parent="1">
          <mxGeometry x="720" y="690" width="160" height="60" as="geometry" />
        </mxCell>
      </root>
    </mxGraphModel>
  </diagram>
</mxfile>
